<?xml version="1.0" standalone="no"?>
<!DOCTYPE svg PUBLIC "-//W3C//DTD SVG 20010904//EN"
 "http://www.w3.org/TR/2001/REC-SVG-20010904/DTD/svg10.dtd">
<svg version="1.0" xmlns="http://www.w3.org/2000/svg"
 width="256.000000pt" height="320.000000pt" viewBox="0 0 256.000000 320.000000"
 preserveAspectRatio="xMidYMid meet">

<g transform="translate(0.000000,320.000000) scale(0.100000,-0.100000)"
fill="#000000" stroke="none">
<path d="M1202 3014 c-294 -306 -498 -840 -519 -1359 -3 -82 -9 -152 -13 -155
-5 -3 -74 -123 -154 -266 l-147 -261 56 -214 c87 -331 82 -318 111 -325 20 -5
51 11 169 92 80 54 146 105 147 113 0 9 0 42 -1 73 -2 32 -1 58 2 58 3 0 16
-17 28 -37 32 -51 118 -153 129 -153 5 0 20 17 33 37 l24 38 -40 47 c-22 27
-38 50 -35 53 3 3 150 4 326 3 l322 -3 -42 -49 -42 -49 21 -36 c12 -20 27 -36
34 -36 12 0 110 114 147 171 10 16 12 10 11 -41 -1 -33 -1 -67 0 -76 0 -8 66
-59 146 -113 116 -78 150 -97 169 -92 29 7 27 0 106 304 57 221 59 234 45 262
-55 106 -278 496 -286 498 -5 2 -9 48 -9 103 0 387 -139 868 -342 1184 -99
155 -247 315 -290 315 -16 0 -49 -27 -106 -86z m160 -82 c101 -108 216 -287
286 -447 61 -141 62 -130 -10 -143 -134 -24 -287 -34 -423 -29 -165 7 -295 25
-295 41 1 24 92 222 144 309 81 138 220 317 246 317 4 0 28 -22 52 -48z m396
-757 c12 -44 35 -141 49 -215 25 -123 27 -156 28 -375 0 -192 -4 -261 -19
-345 -24 -134 -59 -257 -98 -342 l-31 -68 -377 0 -377 0 -31 68 c-143 315
-161 805 -47 1247 14 55 28 101 30 103 2 2 36 -1 77 -8 198 -31 498 -29 663 4
109 22 107 23 133 -69z m-1058 -875 c0 -16 9 -75 19 -132 11 -57 22 -170 26
-253 3 -82 8 -169 11 -192 l6 -41 -91 -61 c-61 -41 -93 -57 -96 -49 -2 7 -26
97 -53 200 l-49 188 106 189 c58 104 109 187 114 184 4 -2 7 -17 7 -33z m1352
-173 l95 -167 -49 -188 c-27 -103 -51 -193 -53 -200 -3 -9 -34 7 -96 49 -87
58 -91 62 -85 92 2 18 8 102 11 187 5 129 25 289 52 420 l5 25 13 -25 c7 -14
56 -100 107 -193z"/>
<path d="M1228 1970 c-105 -56 -176 -257 -151 -431 17 -114 48 -186 107 -246
86 -86 167 -86 252 1 141 145 150 450 18 623 -52 69 -151 92 -226 53z m169
-95 c61 -66 78 -125 78 -265 -1 -136 -24 -211 -85 -272 -32 -32 -44 -38 -80
-38 -36 0 -48 6 -80 38 -61 61 -84 136 -85 272 0 133 18 196 74 262 63 73 112
74 178 3z"/>
<path d="M1141 616 c-8 -9 -11 -69 -9 -191 3 -159 5 -179 21 -189 15 -9 21 -7
33 8 22 30 20 348 -2 370 -19 20 -28 20 -43 2z"/>
<path d="M1300 611 c-5 -11 -10 -65 -10 -120 0 -77 4 -103 16 -115 40 -40 54
-9 54 119 0 110 -7 135 -37 135 -7 0 -17 -9 -23 -19z"/>
<path d="M1471 616 c-8 -9 -11 -87 -9 -262 l3 -249 25 0 25 0 3 254 c2 197 -1
256 -10 263 -18 11 -24 10 -37 -6z"/>
</g>
</svg>
